<svg width="17" height="17" viewBox="0 0 17 17" fill="none" xmlns="http://www.w3.org/2000/svg">
  <path fill-rule="evenodd" clip-rule="evenodd"
    d="M8.50033 3.1665C8.86851 3.1665 9.16699 3.46498 9.16699 3.83317V7.83317H13.167C13.5352 7.83317 13.8337 8.13165 13.8337 8.49984C13.8337 8.86803 13.5352 9.16651 13.167 9.16651H9.16699V13.1665C9.16699 13.5347 8.86851 13.8332 8.50033 13.8332C8.13214 13.8332 7.83366 13.5347 7.83366 13.1665V9.16651H3.83366C3.46547 9.16651 3.16699 8.86803 3.16699 8.49984C3.16699 8.13165 3.46547 7.83317 3.83366 7.83317H7.83366V3.83317C7.83366 3.46498 8.13214 3.1665 8.50033 3.1665Z"
    fill="#F8F8F9" />
</svg>
