<svg width="35" height="39" viewBox="0 0 35 39" fill="none" xmlns="http://www.w3.org/2000/svg">
<path d="M16.75 20.5923H13.25C12.1454 20.5923 11.25 19.6969 11.25 18.5923V8.09229C11.25 6.98772 12.1454 6.09229 13.25 6.09229H19.5L23.75 10.3423V12.5923" stroke="#DA0175" stroke-width="1.5" stroke-linecap="round" stroke-linejoin="round"/>
<path d="M22.5 16.0923V20.5923" stroke="#DA0175" stroke-width="1.5" stroke-linecap="round" stroke-linejoin="round"/>
<path d="M24.75 18.3423H20.25" stroke="#DA0175" stroke-width="1.5" stroke-linecap="round" stroke-linejoin="round"/>
<path d="M23.5 10.5923H19.25V6.34229" stroke="#DA0175" stroke-width="1.5" stroke-linecap="round" stroke-linejoin="round"/>
<path d="M3.112 33.4063C2.57333 33.4063 2.104 33.2916 1.704 33.0623C1.304 32.8276 0.997333 32.4943 0.784 32.0623C0.570667 31.625 0.464 31.1103 0.464 30.5183C0.464 29.9316 0.570667 29.4223 0.784 28.9903C0.997333 28.553 1.304 28.2196 1.704 27.9903C2.104 27.7556 2.57333 27.6383 3.112 27.6383C3.464 27.6383 3.79733 27.6943 4.112 27.8063C4.42667 27.913 4.70133 28.0703 4.936 28.2783C5.03733 28.3583 5.088 28.465 5.088 28.5983C5.088 28.6943 5.06133 28.777 5.008 28.8463C4.95467 28.9103 4.89067 28.9423 4.816 28.9423C4.72533 28.9423 4.63733 28.9076 4.552 28.8383C4.296 28.6463 4.06133 28.513 3.848 28.4383C3.64 28.3583 3.40267 28.3183 3.136 28.3183C2.54933 28.3183 2.09867 28.5076 1.784 28.8863C1.46933 29.265 1.312 29.809 1.312 30.5183C1.312 31.233 1.46933 31.7796 1.784 32.1583C2.09867 32.537 2.54933 32.7263 3.136 32.7263C3.392 32.7263 3.624 32.6863 3.832 32.6063C4.04533 32.5263 4.28533 32.393 4.552 32.2063C4.65867 32.137 4.74667 32.1023 4.816 32.1023C4.89067 32.1023 4.95467 32.137 5.008 32.2063C5.06133 32.2703 5.088 32.3503 5.088 32.4463C5.088 32.5796 5.03733 32.6863 4.936 32.7663C4.70133 32.9743 4.42667 33.1343 4.112 33.2463C3.79733 33.353 3.464 33.4063 3.112 33.4063ZM7.59194 33.3983C7.20794 33.3983 6.86927 33.3156 6.57594 33.1503C6.28794 32.985 6.06394 32.7503 5.90394 32.4463C5.74927 32.137 5.67194 31.7796 5.67194 31.3743C5.67194 30.9636 5.74927 30.6063 5.90394 30.3023C6.06394 29.993 6.28794 29.7556 6.57594 29.5903C6.86927 29.425 7.20794 29.3423 7.59194 29.3423C7.97594 29.3423 8.31194 29.425 8.59994 29.5903C8.89327 29.7556 9.11727 29.993 9.27194 30.3023C9.43194 30.6063 9.51194 30.9636 9.51194 31.3743C9.51194 31.7796 9.43194 32.137 9.27194 32.4463C9.11727 32.7503 8.89327 32.985 8.59994 33.1503C8.31194 33.3156 7.97594 33.3983 7.59194 33.3983ZM7.59194 32.7583C7.94927 32.7583 8.22127 32.641 8.40794 32.4063C8.59994 32.1716 8.69594 31.8276 8.69594 31.3743C8.69594 30.9263 8.59994 30.585 8.40794 30.3503C8.21594 30.1103 7.94394 29.9903 7.59194 29.9903C7.23994 29.9903 6.96794 30.1103 6.77594 30.3503C6.58394 30.585 6.48794 30.9263 6.48794 31.3743C6.48794 31.8276 6.58127 32.1716 6.76794 32.4063C6.95994 32.641 7.2346 32.7583 7.59194 32.7583ZM12.5076 29.3423C12.8489 29.3423 13.1502 29.425 13.4116 29.5903C13.6729 29.7556 13.8756 29.9903 14.0196 30.2943C14.1689 30.5983 14.2436 30.953 14.2436 31.3583C14.2436 31.7583 14.1689 32.113 14.0196 32.4223C13.8756 32.7316 13.6702 32.9716 13.4036 33.1423C13.1422 33.313 12.8436 33.3983 12.5076 33.3983C12.2142 33.3983 11.9556 33.337 11.7316 33.2143C11.5076 33.0863 11.3369 32.905 11.2196 32.6703V32.9903C11.2196 33.1076 11.1822 33.2036 11.1076 33.2783C11.0382 33.3476 10.9422 33.3823 10.8196 33.3823C10.6969 33.3823 10.5982 33.3476 10.5236 33.2783C10.4489 33.2036 10.4116 33.1076 10.4116 32.9903V28.0463C10.4116 27.929 10.4489 27.8356 10.5236 27.7663C10.6036 27.697 10.7049 27.6623 10.8276 27.6623C10.9449 27.6623 11.0382 27.697 11.1076 27.7663C11.1822 27.8303 11.2196 27.9183 11.2196 28.0303V30.0783C11.3369 29.8436 11.5076 29.6623 11.7316 29.5343C11.9556 29.4063 12.2142 29.3423 12.5076 29.3423ZM12.3156 32.7583C12.6622 32.7583 12.9316 32.6356 13.1236 32.3903C13.3209 32.145 13.4196 31.801 13.4196 31.3583C13.4196 30.921 13.3236 30.585 13.1316 30.3503C12.9396 30.1103 12.6676 29.9903 12.3156 29.9903C11.9636 29.9903 11.6916 30.1103 11.4996 30.3503C11.3129 30.5903 11.2196 30.9316 11.2196 31.3743C11.2196 31.817 11.3129 32.1583 11.4996 32.3983C11.6916 32.6383 11.9636 32.7583 12.3156 32.7583ZM17.1861 29.3583C17.4421 29.3423 17.5701 29.4516 17.5701 29.6863C17.5701 29.8036 17.5408 29.8916 17.4821 29.9503C17.4235 30.009 17.3221 30.0436 17.1781 30.0543L16.9381 30.0783C16.6021 30.1103 16.3515 30.2276 16.1861 30.4303C16.0261 30.633 15.9461 30.8783 15.9461 31.1663V32.9983C15.9461 33.1263 15.9088 33.2223 15.8341 33.2863C15.7595 33.3503 15.6635 33.3823 15.5461 33.3823C15.4288 33.3823 15.3301 33.3503 15.2501 33.2863C15.1755 33.2223 15.1381 33.1263 15.1381 32.9983V29.7423C15.1381 29.6196 15.1755 29.5263 15.2501 29.4623C15.3301 29.393 15.4288 29.3583 15.5461 29.3583C15.6528 29.3583 15.7408 29.393 15.8101 29.4623C15.8848 29.5263 15.9221 29.617 15.9221 29.7343V30.1183C16.0288 29.8836 16.1835 29.705 16.3861 29.5823C16.5888 29.4596 16.8181 29.3876 17.0741 29.3663L17.1861 29.3583ZM19.6844 29.3423C20.2017 29.3423 20.5857 29.473 20.8364 29.7343C21.0924 29.9956 21.2204 30.393 21.2204 30.9263V32.9983C21.2204 33.121 21.1857 33.217 21.1164 33.2863C21.047 33.3503 20.951 33.3823 20.8284 33.3823C20.711 33.3823 20.6177 33.3476 20.5484 33.2783C20.479 33.209 20.4444 33.1156 20.4444 32.9983V32.7023C20.343 32.9263 20.191 33.0996 19.9884 33.2223C19.791 33.3396 19.559 33.3983 19.2924 33.3983C19.0364 33.3983 18.8017 33.3476 18.5884 33.2463C18.3804 33.1396 18.215 32.9956 18.0924 32.8143C17.9697 32.633 17.9084 32.4276 17.9084 32.1983C17.903 31.9103 17.975 31.6863 18.1244 31.5263C18.2737 31.361 18.5164 31.2436 18.8524 31.1743C19.1884 31.0996 19.655 31.0623 20.2524 31.0623H20.4364V30.8303C20.4364 30.5316 20.375 30.3156 20.2524 30.1823C20.1297 30.049 19.9324 29.9823 19.6604 29.9823C19.4737 29.9823 19.2977 30.0063 19.1324 30.0543C18.967 30.1023 18.7857 30.1716 18.5884 30.2623C18.4444 30.3423 18.343 30.3823 18.2844 30.3823C18.2044 30.3823 18.1377 30.353 18.0844 30.2943C18.0364 30.2356 18.0124 30.161 18.0124 30.0703C18.0124 29.9903 18.0337 29.921 18.0764 29.8623C18.1244 29.7983 18.199 29.737 18.3004 29.6783C18.487 29.577 18.7057 29.497 18.9564 29.4383C19.207 29.3743 19.4497 29.3423 19.6844 29.3423ZM19.4364 32.7983C19.7297 32.7983 19.9697 32.6996 20.1564 32.5023C20.343 32.2996 20.4364 32.041 20.4364 31.7263V31.5183H20.2924C19.8764 31.5183 19.5564 31.537 19.3324 31.5743C19.1084 31.6116 18.9484 31.6756 18.8524 31.7663C18.7564 31.8516 18.7084 31.977 18.7084 32.1423C18.7084 32.3343 18.7777 32.4916 18.9164 32.6143C19.055 32.737 19.2284 32.7983 19.4364 32.7983ZM24.4296 29.3423C25.363 29.3423 25.8296 29.8676 25.8296 30.9183V32.9983C25.8296 33.121 25.7923 33.217 25.7176 33.2863C25.6483 33.3503 25.5496 33.3823 25.4216 33.3823C25.299 33.3823 25.2003 33.3476 25.1256 33.2783C25.0563 33.209 25.0216 33.1156 25.0216 32.9983V30.9583C25.0216 30.6276 24.955 30.385 24.8216 30.2303C24.6936 30.0756 24.491 29.9983 24.2136 29.9983C23.8883 29.9983 23.627 30.0996 23.4296 30.3023C23.2323 30.505 23.1336 30.777 23.1336 31.1183V32.9983C23.1336 33.1156 23.0963 33.209 23.0216 33.2783C22.9523 33.3476 22.8563 33.3823 22.7336 33.3823C22.611 33.3823 22.5123 33.3476 22.4376 33.2783C22.363 33.209 22.3256 33.1156 22.3256 32.9983V29.7423C22.3256 29.6303 22.363 29.5396 22.4376 29.4703C22.5176 29.3956 22.6163 29.3583 22.7336 29.3583C22.851 29.3583 22.9443 29.393 23.0136 29.4623C23.083 29.5316 23.1176 29.6223 23.1176 29.7343V30.0623C23.2456 29.8276 23.4243 29.649 23.6536 29.5263C23.883 29.4036 24.1416 29.3423 24.4296 29.3423ZM29.823 32.3503C29.8977 32.3503 29.959 32.3823 30.007 32.4463C30.055 32.505 30.079 32.5796 30.079 32.6703C30.079 32.745 30.0577 32.8143 30.015 32.8783C29.9777 32.937 29.911 32.9983 29.815 33.0623C29.6763 33.153 29.5163 33.2276 29.335 33.2863C29.1537 33.345 28.9697 33.3796 28.783 33.3903L28.743 33.6943C28.8177 33.6783 28.8843 33.6703 28.943 33.6703C29.1083 33.6703 29.247 33.7183 29.359 33.8143C29.4763 33.9103 29.535 34.0463 29.535 34.2223C29.535 34.4196 29.4497 34.5796 29.279 34.7023C29.1083 34.8303 28.8657 34.8943 28.551 34.8943C28.343 34.8943 28.159 34.865 27.999 34.8063C27.903 34.769 27.855 34.7023 27.855 34.6063C27.855 34.5423 27.8763 34.489 27.919 34.4463C27.967 34.4036 28.0283 34.393 28.103 34.4143C28.263 34.457 28.4123 34.4783 28.551 34.4783C28.6897 34.4783 28.7963 34.457 28.871 34.4143C28.9457 34.3716 28.983 34.3076 28.983 34.2223C28.983 34.1583 28.9617 34.1076 28.919 34.0703C28.8817 34.0383 28.8257 34.0223 28.751 34.0223C28.6977 34.0223 28.6257 34.033 28.535 34.0543C28.4443 34.0756 28.3883 34.0863 28.367 34.0863C28.3243 34.0863 28.2843 34.0703 28.247 34.0383C28.215 34.0116 28.2017 33.9743 28.207 33.9263L28.271 33.3743C27.791 33.2996 27.4097 33.0863 27.127 32.7343C26.8497 32.3823 26.711 31.9343 26.711 31.3903C26.711 30.985 26.791 30.6276 26.951 30.3183C27.1163 30.009 27.3457 29.769 27.639 29.5983C27.9323 29.4276 28.2683 29.3423 28.647 29.3423C28.8497 29.3423 29.0523 29.3716 29.255 29.4303C29.463 29.489 29.647 29.569 29.807 29.6703C29.9777 29.7876 30.063 29.9236 30.063 30.0783C30.063 30.169 30.039 30.2463 29.991 30.3103C29.943 30.369 29.8817 30.3983 29.807 30.3983C29.759 30.3983 29.711 30.3876 29.663 30.3663C29.615 30.3396 29.5537 30.3023 29.479 30.2543C29.3457 30.169 29.2203 30.105 29.103 30.0623C28.991 30.0143 28.855 29.9903 28.695 29.9903C28.3323 29.9903 28.0497 30.113 27.847 30.3583C27.6497 30.6036 27.551 30.945 27.551 31.3823C27.551 31.8196 27.6497 32.1583 27.847 32.3983C28.0443 32.633 28.3243 32.7503 28.687 32.7503C28.847 32.7503 28.9883 32.7263 29.111 32.6783C29.2337 32.6303 29.359 32.5663 29.487 32.4863C29.5457 32.449 29.6043 32.417 29.663 32.3903C29.7217 32.3636 29.775 32.3503 29.823 32.3503ZM32.4422 29.3423C32.9595 29.3423 33.3435 29.473 33.5942 29.7343C33.8502 29.9956 33.9782 30.393 33.9782 30.9263V32.9983C33.9782 33.121 33.9435 33.217 33.8742 33.2863C33.8049 33.3503 33.7089 33.3823 33.5862 33.3823C33.4689 33.3823 33.3755 33.3476 33.3062 33.2783C33.2369 33.209 33.2022 33.1156 33.2022 32.9983V32.7023C33.1009 32.9263 32.9489 33.0996 32.7462 33.2223C32.5489 33.3396 32.3169 33.3983 32.0502 33.3983C31.7942 33.3983 31.5595 33.3476 31.3462 33.2463C31.1382 33.1396 30.9729 32.9956 30.8502 32.8143C30.7275 32.633 30.6662 32.4276 30.6662 32.1983C30.6609 31.9103 30.7329 31.6863 30.8822 31.5263C31.0315 31.361 31.2742 31.2436 31.6102 31.1743C31.9462 31.0996 32.4129 31.0623 33.0102 31.0623H33.1942V30.8303C33.1942 30.5316 33.1329 30.3156 33.0102 30.1823C32.8875 30.049 32.6902 29.9823 32.4182 29.9823C32.2315 29.9823 32.0555 30.0063 31.8902 30.0543C31.7249 30.1023 31.5435 30.1716 31.3462 30.2623C31.2022 30.3423 31.1009 30.3823 31.0422 30.3823C30.9622 30.3823 30.8955 30.353 30.8422 30.2943C30.7942 30.2356 30.7702 30.161 30.7702 30.0703C30.7702 29.9903 30.7915 29.921 30.8342 29.8623C30.8822 29.7983 30.9569 29.737 31.0582 29.6783C31.2449 29.577 31.4635 29.497 31.7142 29.4383C31.9649 29.3743 32.2075 29.3423 32.4422 29.3423ZM32.1942 32.7983C32.4875 32.7983 32.7275 32.6996 32.9142 32.5023C33.1009 32.2996 33.1942 32.041 33.1942 31.7263V31.5183H33.0502C32.6342 31.5183 32.3142 31.537 32.0902 31.5743C31.8662 31.6116 31.7062 31.6756 31.6102 31.7663C31.5142 31.8516 31.4662 31.977 31.4662 32.1423C31.4662 32.3343 31.5355 32.4916 31.6742 32.6143C31.8129 32.737 31.9862 32.7983 32.1942 32.7983Z" fill="#DA0175"/>
</svg>
